<svg width="39" height="45" viewBox="0 0 39 45" fill="none" xmlns="http://www.w3.org/2000/svg">
<g id="fa6-solid:user-doctor" clip-path="url(#clip0_103_2126)">
<path id="Vector" d="M19.5 22.5C22.4553 22.5 25.2895 21.3147 27.3792 19.205C29.4689 17.0952 30.6429 14.2337 30.6429 11.25C30.6429 8.26631 29.4689 5.40483 27.3792 3.29505C25.2895 1.18526 22.4553 0 19.5 0C16.5447 0 13.7105 1.18526 11.6208 3.29505C9.53112 5.40483 8.35714 8.26631 8.35714 11.25C8.35714 14.2337 9.53112 17.0952 11.6208 19.205C13.7105 21.3147 16.5447 22.5 19.5 22.5ZM11.1429 27.3516C4.70089 29.2588 0 35.2705 0 42.3896C0 43.8311 1.15781 45 2.58549 45H36.4145C37.8422 45 39 43.8311 39 42.3896C39 35.2705 34.2991 29.2588 27.8571 27.3516V31.8164C30.2598 32.4404 32.0357 34.6465 32.0357 37.2656V40.7812C32.0357 41.5547 31.4089 42.1875 30.6429 42.1875H29.25C28.4839 42.1875 27.8571 41.5547 27.8571 40.7812C27.8571 40.0078 28.4839 39.375 29.25 39.375V37.2656C29.25 35.71 28.0051 34.4531 26.4643 34.4531C24.9234 34.4531 23.6786 35.71 23.6786 37.2656V39.375C24.4446 39.375 25.0714 40.0078 25.0714 40.7812C25.0714 41.5547 24.4446 42.1875 23.6786 42.1875H22.2857C21.5196 42.1875 20.8929 41.5547 20.8929 40.7812V37.2656C20.8929 34.6465 22.6688 32.4404 25.0714 31.8164V26.7979C24.5491 26.7451 24.0181 26.7188 23.4783 26.7188H15.5217C14.9819 26.7188 14.4509 26.7451 13.9286 26.7979V32.5459C15.9395 33.1523 17.4107 35.0332 17.4107 37.2656C17.4107 39.9814 15.2257 42.1875 12.5357 42.1875C9.84576 42.1875 7.66071 39.9814 7.66071 37.2656C7.66071 35.0332 9.13192 33.1523 11.1429 32.5459V27.3516ZM12.5357 39.375C13.0898 39.375 13.6212 39.1528 14.0131 38.7572C14.4049 38.3616 14.625 37.8251 14.625 37.2656C14.625 36.7062 14.4049 36.1697 14.0131 35.7741C13.6212 35.3785 13.0898 35.1562 12.5357 35.1562C11.9816 35.1562 11.4502 35.3785 11.0584 35.7741C10.6665 36.1697 10.4464 36.7062 10.4464 37.2656C10.4464 37.8251 10.6665 38.3616 11.0584 38.7572C11.4502 39.1528 11.9816 39.375 12.5357 39.375Z" fill="#1F85D6"/>
</g>
<defs>
<clipPath id="clip0_103_2126">
<rect width="39" height="45" fill="white"/>
</clipPath>
</defs>
</svg>
