<svg width="41" height="40" viewBox="0 0 41 40" fill="none" xmlns="http://www.w3.org/2000/svg">
<g id="material-symbols:call">
<path id="Vector" d="M33.75 35C30.2778 35 26.8472 34.2433 23.4583 32.73C20.0694 31.2167 16.9861 29.0706 14.2083 26.2917C11.4306 23.5139 9.285 20.4306 7.77167 17.0417C6.25833 13.6528 5.50111 10.2222 5.5 6.75C5.5 6.25 5.66667 5.83333 6 5.5C6.33333 5.16667 6.75 5 7.25 5H14C14.3889 5 14.7361 5.13222 15.0417 5.39667C15.3472 5.66111 15.5278 5.97333 15.5833 6.33333L16.6667 12.1667C16.7222 12.6111 16.7083 12.9861 16.625 13.2917C16.5417 13.5972 16.3889 13.8611 16.1667 14.0833L12.125 18.1667C12.6806 19.1944 13.34 20.1872 14.1033 21.145C14.8667 22.1028 15.7072 23.0267 16.625 23.9167C17.4861 24.7778 18.3889 25.5767 19.3333 26.3133C20.2778 27.05 21.2778 27.7233 22.3333 28.3333L26.25 24.4167C26.5 24.1667 26.8267 23.9794 27.23 23.855C27.6333 23.7306 28.0289 23.6956 28.4167 23.75L34.1667 24.9167C34.5556 25.0278 34.875 25.2294 35.125 25.5217C35.375 25.8139 35.5 26.14 35.5 26.5V33.25C35.5 33.75 35.3333 34.1667 35 34.5C34.6667 34.8333 34.25 35 33.75 35Z" fill="#1F85D6"/>
</g>
</svg>
